<svg width="20" height="28" viewBox="0 0 20 28" fill="none" xmlns="http://www.w3.org/2000/svg">
<path d="M11.8803 22.3092C11.3129 21.8827 10.6116 21.723 10.0004 21.723C9.38891 21.723 8.68771 21.8828 8.12014 22.3089C8.11973 22.3092 8.11933 22.3095 8.11893 22.3098L2.58104 26.4542L2.58 26.455C2.06031 26.8448 1.74887 26.7551 1.64295 26.6985C1.51851 26.6322 1.25 26.3834 1.25 25.705V3.245C1.25 2.10783 2.13165 1.25 3.118 1.25H16.882C17.8684 1.25 18.75 2.10683 18.75 3.246V25.705C18.75 26.384 18.4815 26.6325 18.3576 26.6986C18.2523 26.7549 17.9407 26.8451 17.4194 26.4546L17.419 26.4542L11.8819 22.3104C11.8814 22.31 11.8808 22.3096 11.8803 22.3092Z" stroke="#EEEEEE" stroke-width="2.5"/>
</svg>
