<svg width="32" height="32" viewBox="0 0 32 32" fill="none" xmlns="http://www.w3.org/2000/svg">
<path d="M22 27H10C9.46957 27 8.96086 26.7893 8.58579 26.4142C8.21071 26.0391 8 25.5304 8 25V15C8 14.4696 8.21071 13.9609 8.58579 13.5858C8.96086 13.2107 9.46957 13 10 13H11V11C11 9.67392 11.5268 8.40215 12.4645 7.46447C13.4021 6.52678 14.6739 6 16 6C17.3261 6 18.5979 6.52678 19.5355 7.46447C20.4732 8.40215 21 9.67392 21 11V13H22C22.5304 13 23.0391 13.2107 23.4142 13.5858C23.7893 13.9609 24 14.4696 24 15V25C24 25.5304 23.7893 26.0391 23.4142 26.4142C23.0391 26.7893 22.5304 27 22 27ZM16 8C15.2044 8 14.4413 8.31607 13.8787 8.87868C13.3161 9.44129 13 10.2044 13 11V13H19V11C19 10.2044 18.6839 9.44129 18.1213 8.87868C17.5587 8.31607 16.7956 8 16 8Z" fill="#9AA0A6"/>
</svg>
