<?xml version="1.0"?><svg fill="#ffffff" xmlns="http://www.w3.org/2000/svg"  viewBox="0 0 24 24" width="24px" height="24px">    <path d="M 11.5 0 C 10.119 0 9 1.119 9 2.5 L 9 4 L 5 4 C 3.895 4 3 4.895 3 6 L 3 9 C 3 9.552 3.448 10 4 10 L 4.3574219 10 C 5.6654219 10 6.8553281 10.941188 6.9863281 12.242188 C 7.1363281 13.739187 5.966 15 4.5 15 L 4 15 C 3.448 15 3 15.448 3 16 L 3 19 C 3 20.105 3.895 21 5 21 L 8 21 C 8.552 21 9 20.552 9 20 L 9 19.642578 C 9 18.334578 9.9411875 17.144672 11.242188 17.013672 C 12.739187 16.863672 14 18.034 14 19.5 L 14 20 C 14 20.552 14.448 21 15 21 L 18 21 C 19.105 21 20 20.105 20 19 L 20 15 L 21.5 15 C 22.881 15 24 13.881 24 12.5 C 24 11.119 22.881 10 21.5 10 L 20 10 L 20 6 C 20 4.895 19.105 4 18 4 L 14 4 L 14 2.5 C 14 1.119 12.881 0 11.5 0 z"/></svg>