<svg width="55" height="55" viewBox="0 0 55 55" fill="none" xmlns="http://www.w3.org/2000/svg">
<mask id="path-1-outside-1" maskUnits="userSpaceOnUse" x="0.429688" y="0.178223" width="55" height="54" fill="black">
<rect fill="white" x="0.429688" y="0.178223" width="55" height="54"/>
<path d="M50.7001 33.4401C50.4533 33.3473 50.1906 33.3043 49.927 33.3134C49.6635 33.3226 49.4044 33.3838 49.1646 33.4934C48.9249 33.6031 48.7091 33.7591 48.5299 33.9525C48.3506 34.1458 48.2113 34.3727 48.1201 34.6201C46.6931 38.3185 44.2838 41.5574 41.1519 43.9875C38.0199 46.4177 34.2841 47.947 30.3472 48.4105C26.4102 48.8741 22.4214 48.2544 18.8106 46.6183C15.1998 44.9821 12.1041 42.3915 9.85707 39.1257C7.61004 35.8599 6.29693 32.0427 6.05928 28.0857C5.82163 24.1286 6.66846 20.1818 8.50849 16.6705C10.3485 13.1592 13.112 10.2167 16.5009 8.16019C19.8899 6.10363 23.7759 5.011 27.7401 5.00008C32.3145 4.9996 36.77 6.45675 40.4601 9.16008C39.1031 10.4307 38.2309 12.1343 37.9935 13.9781C37.7561 15.8219 38.1682 17.6908 39.1591 19.2638C40.15 20.8367 41.6577 22.0155 43.4233 22.5975C45.1889 23.1796 47.102 23.1286 48.8341 22.4533C50.5661 21.778 52.0089 20.5205 52.9145 18.897C53.8202 17.2735 54.1321 15.3852 53.7968 13.5567C53.4614 11.7281 52.4998 10.0735 51.0769 8.87697C49.6541 7.68046 47.859 7.01683 46.0001 7.00008C45.4352 6.99843 44.8718 7.05879 44.3201 7.18008C39.6926 3.25507 33.8077 1.12544 27.7401 1.18008C22.9685 1.12311 18.2733 2.38041 14.1687 4.81427C10.0641 7.24812 6.70856 10.7646 4.46951 14.9786C2.23045 19.1926 1.19431 23.9416 1.47458 28.7053C1.75484 33.4689 3.3407 38.0636 6.05844 41.986C8.77618 45.9083 12.521 49.0071 16.8826 50.9429C21.2443 52.8786 26.0545 53.5767 30.7865 52.9606C35.5185 52.3445 39.9896 50.438 43.7102 47.45C47.4308 44.4619 50.2573 40.5076 51.8801 36.0201C51.9728 35.7733 52.0159 35.5105 52.0067 35.247C51.9976 34.9835 51.9364 34.7244 51.8267 34.4846C51.7171 34.2449 51.5611 34.0291 51.3677 33.8499C51.1744 33.6706 50.9475 33.5313 50.7001 33.4401V33.4401Z"/>
</mask>
<path d="M50.7001 33.4401C50.4533 33.3473 50.1906 33.3043 49.927 33.3134C49.6635 33.3226 49.4044 33.3838 49.1646 33.4934C48.9249 33.6031 48.7091 33.7591 48.5299 33.9525C48.3506 34.1458 48.2113 34.3727 48.1201 34.6201C46.6931 38.3185 44.2838 41.5574 41.1519 43.9875C38.0199 46.4177 34.2841 47.947 30.3472 48.4105C26.4102 48.8741 22.4214 48.2544 18.8106 46.6183C15.1998 44.9821 12.1041 42.3915 9.85707 39.1257C7.61004 35.8599 6.29693 32.0427 6.05928 28.0857C5.82163 24.1286 6.66846 20.1818 8.50849 16.6705C10.3485 13.1592 13.112 10.2167 16.5009 8.16019C19.8899 6.10363 23.7759 5.011 27.7401 5.00008C32.3145 4.9996 36.77 6.45675 40.4601 9.16008C39.1031 10.4307 38.2309 12.1343 37.9935 13.9781C37.7561 15.8219 38.1682 17.6908 39.1591 19.2638C40.15 20.8367 41.6577 22.0155 43.4233 22.5975C45.1889 23.1796 47.102 23.1286 48.8341 22.4533C50.5661 21.778 52.0089 20.5205 52.9145 18.897C53.8202 17.2735 54.1321 15.3852 53.7968 13.5567C53.4614 11.7281 52.4998 10.0735 51.0769 8.87697C49.6541 7.68046 47.859 7.01683 46.0001 7.00008C45.4352 6.99843 44.8718 7.05879 44.3201 7.18008C39.6926 3.25507 33.8077 1.12544 27.7401 1.18008C22.9685 1.12311 18.2733 2.38041 14.1687 4.81427C10.0641 7.24812 6.70856 10.7646 4.46951 14.9786C2.23045 19.1926 1.19431 23.9416 1.47458 28.7053C1.75484 33.4689 3.3407 38.0636 6.05844 41.986C8.77618 45.9083 12.521 49.0071 16.8826 50.9429C21.2443 52.8786 26.0545 53.5767 30.7865 52.9606C35.5185 52.3445 39.9896 50.438 43.7102 47.45C47.4308 44.4619 50.2573 40.5076 51.8801 36.0201C51.9728 35.7733 52.0159 35.5105 52.0067 35.247C51.9976 34.9835 51.9364 34.7244 51.8267 34.4846C51.7171 34.2449 51.5611 34.0291 51.3677 33.8499C51.1744 33.6706 50.9475 33.5313 50.7001 33.4401V33.4401Z" fill="#EEEEEE"/>
<path d="M50.7001 33.4401C50.4533 33.3473 50.1906 33.3043 49.927 33.3134C49.6635 33.3226 49.4044 33.3838 49.1646 33.4934C48.9249 33.6031 48.7091 33.7591 48.5299 33.9525C48.3506 34.1458 48.2113 34.3727 48.1201 34.6201C46.6931 38.3185 44.2838 41.5574 41.1519 43.9875C38.0199 46.4177 34.2841 47.947 30.3472 48.4105C26.4102 48.8741 22.4214 48.2544 18.8106 46.6183C15.1998 44.9821 12.1041 42.3915 9.85707 39.1257C7.61004 35.8599 6.29693 32.0427 6.05928 28.0857C5.82163 24.1286 6.66846 20.1818 8.50849 16.6705C10.3485 13.1592 13.112 10.2167 16.5009 8.16019C19.8899 6.10363 23.7759 5.011 27.7401 5.00008C32.3145 4.9996 36.77 6.45675 40.4601 9.16008C39.1031 10.4307 38.2309 12.1343 37.9935 13.9781C37.7561 15.8219 38.1682 17.6908 39.1591 19.2638C40.15 20.8367 41.6577 22.0155 43.4233 22.5975C45.1889 23.1796 47.102 23.1286 48.8341 22.4533C50.5661 21.778 52.0089 20.5205 52.9145 18.897C53.8202 17.2735 54.1321 15.3852 53.7968 13.5567C53.4614 11.7281 52.4998 10.0735 51.0769 8.87697C49.6541 7.68046 47.859 7.01683 46.0001 7.00008C45.4352 6.99843 44.8718 7.05879 44.3201 7.18008C39.6926 3.25507 33.8077 1.12544 27.7401 1.18008C22.9685 1.12311 18.2733 2.38041 14.1687 4.81427C10.0641 7.24812 6.70856 10.7646 4.46951 14.9786C2.23045 19.1926 1.19431 23.9416 1.47458 28.7053C1.75484 33.4689 3.3407 38.0636 6.05844 41.986C8.77618 45.9083 12.521 49.0071 16.8826 50.9429C21.2443 52.8786 26.0545 53.5767 30.7865 52.9606C35.5185 52.3445 39.9896 50.438 43.7102 47.45C47.4308 44.4619 50.2573 40.5076 51.8801 36.0201C51.9728 35.7733 52.0159 35.5105 52.0067 35.247C51.9976 34.9835 51.9364 34.7244 51.8267 34.4846C51.7171 34.2449 51.5611 34.0291 51.3677 33.8499C51.1744 33.6706 50.9475 33.5313 50.7001 33.4401V33.4401Z" stroke="#EEEEEE" stroke-width="2" mask="url(#path-1-outside-1)"/>
</svg>
